<svg width="84" height="51" viewBox="0 0 84 51" fill="none" xmlns="http://www.w3.org/2000/svg">
<path d="M72.321 34.0848L66.64 26.1224L72.321 18.1593L78.002 26.1224L72.321 34.0848Z" fill="#FF0000"/>
<path d="M28.6268 6.53796H38.4404V17.1342H35.0642V35.1099H38.4404V45.5795H27.0563V35.1099H30.4325V17.2601L22.0318 45.5795H19.8333L11.4327 17.2601V35.1099H14.9657V45.5795H3.4248V35.1099H6.80101V17.1342H3.4248V6.53796H13.0816L21.0894 32.9023L28.6268 6.53796Z" fill="white"/>
<path d="M60.187 37.1915C60.187 42.9103 57.4123 45.7691 51.8648 45.7691C49.0382 45.7691 46.7872 44.908 45.1124 43.1831C43.5938 41.5855 42.8354 39.6095 42.8354 37.2544V12.7821C42.8354 8.57825 45.034 6.47501 49.4304 6.47501C51.8376 6.47501 53.8786 7.46334 55.5541 9.43936V6.53797H60.1864V22.5586H55.5541V19.9727C55.5541 17.9966 54.2195 16.967 51.5498 16.8824C48.8276 16.8411 47.4671 17.8917 47.4671 20.0363V31.7678C47.4671 34.2907 48.8017 35.5519 51.4714 35.5519C54.1411 35.5519 55.5541 34.3124 55.5541 31.8307V29.5602H60.1864V37.1921L60.187 37.1915Z" fill="white"/>
</svg>
