<svg width="710" height="235" viewBox="0 0 710 235" fill="none" xmlns="http://www.w3.org/2000/svg">
<path d="M170.422 108.518C170.422 115.659 169.091 122.489 166.658 128.78C164.122 135.36 160.38 141.346 155.701 146.472L117.977 183.979L113.627 188.304L70.2933 145.219C66.1297 140.377 62.7824 134.827 60.4486 128.78C58.0162 122.489 56.6849 115.659 56.6849 108.524C56.6849 93.9477 62.2291 80.6628 71.3451 70.6351L75.443 66.5608C85.5287 57.4972 98.8905 51.985 113.551 51.985C144.958 51.985 170.416 77.3021 170.416 108.524L170.422 108.518Z" fill="#F83121"/>
<mask id="mask0_1_34" style="mask-type:luminance" maskUnits="userSpaceOnUse" x="56" y="51" width="115" height="138">
<path d="M170.422 108.518C170.422 115.659 169.091 122.489 166.658 128.78C164.122 135.36 160.38 141.346 155.701 146.472L117.977 183.979L113.627 188.304L70.2933 145.219C66.1297 140.377 62.7824 134.827 60.4486 128.78C58.0162 122.489 56.6849 115.659 56.6849 108.524C56.6849 93.9477 62.2291 80.6628 71.3451 70.6351L75.443 66.5608C85.5287 57.4972 98.8905 51.985 113.551 51.985C144.958 51.985 170.416 77.3021 170.416 108.524L170.422 108.518Z" fill="white"/>
</mask>
<g mask="url(#mask0_1_34)">
<path d="M62.2729 169.425L129.241 137.114L100.233 81.921L38.3926 114.826L62.2729 169.425Z" fill="#891B1E"/>
</g>
<path d="M128.326 85.358C119.199 84.2142 110.072 83.0649 100.939 81.921C99.6082 81.7522 98.37 82.8633 98.1893 84.4048C96.1294 102.336 96.1294 120.447 98.1893 138.378C98.3646 139.919 99.6082 141.031 100.939 140.862C110.066 139.718 119.193 138.569 128.326 137.425C129.657 137.256 130.599 136.041 130.446 134.712C128.666 119.216 128.666 103.567 130.446 88.0705C130.599 86.7415 129.657 85.5323 128.326 85.358Z" fill="white"/>
<path d="M114.449 96.4533C110.74 100.751 107.283 105.468 104.15 110.577C107.283 115.686 110.74 120.403 114.449 124.701C116.964 119.619 119.823 114.902 122.963 110.577C119.829 106.252 116.964 101.53 114.449 96.4533Z" fill="#F83121"/>
<path d="M251.656 79.3011H272.484V101.399H265.319V138.884H272.484V160.715H248.325V138.884H255.49V101.66L237.664 160.715H232.996L215.169 101.66V138.884H222.669V160.715H198.175V138.884H205.341V101.399H198.175V79.3011H218.67L235.664 134.282L251.661 79.3011H251.656Z" fill="white"/>
<path d="M318.634 143.226C318.634 155.149 312.745 161.113 300.972 161.113C294.973 161.113 290.196 159.316 286.641 155.721C283.419 152.387 281.809 148.269 281.809 143.356V92.3245C281.809 83.5551 286.476 79.1703 295.806 79.1703C300.912 79.1703 305.245 81.2292 308.801 85.3525V79.3011H318.629V112.707H308.801V107.314C308.801 103.197 305.968 101.045 300.304 100.871C294.529 100.784 291.637 102.973 291.637 107.445V131.907C291.637 137.169 294.469 139.8 300.134 139.8C305.799 139.8 308.801 137.212 308.801 132.038V127.304H318.629V143.22L318.634 143.226Z" fill="white"/>
<path d="M406.513 111.944H396.712V107.881C396.712 105.348 396.159 103.621 395.053 102.701C393.946 101.786 391.787 101.323 388.577 101.323C385.367 101.323 382.984 101.78 381.767 102.701C380.546 103.621 379.943 105.392 379.943 108.012V132.659C379.943 137.032 382.71 139.304 388.248 139.478H388.747C394.061 139.217 396.718 136.989 396.718 132.789V124.004H389.908V116.792H414.326V124.004H406.519V160.585H397.715V154.686C395.392 158.88 391.179 160.977 385.093 160.977C380.217 160.977 376.399 159.359 373.632 156.124C371.309 153.237 370.142 149.745 370.142 145.633V93.0599C370.252 92.6241 370.307 92.1012 370.307 91.4857C371.413 83.359 376.01 79.2902 384.09 79.2902C388.298 79.2902 392.505 81.2565 396.712 85.1891V79.4209H406.513V111.933V111.944Z" fill="white"/>
<path d="M437.072 127.942L433.418 138.955H440.89V160.721H416.643V138.955H423.787L435.083 101.59H429.605V79.5625H460.163V101.59H454.849L467.307 138.955H474.451V160.721H450.034V138.955H457.506L453.688 127.942H437.077H437.072ZM439.4 119.946H451.025L445.213 101.59L439.4 119.946Z" fill="white"/>
<path d="M532.736 79.5625H553.499V101.59H546.355V138.955H553.499V160.721H529.416V138.955H536.559V101.851L518.788 160.715H514.136L496.365 101.851V138.955H503.837V160.721H479.42V138.955H486.564V101.59H479.42V79.5625H499.849L516.788 134.364L532.73 79.5625H532.736Z" fill="white"/>
<path d="M604.316 112.865H594.685V106.176C594.685 103.382 592.691 101.895 588.708 101.72L577.083 101.59V116.928H591.365V124.14H577.083V138.955H588.544C592.642 138.955 594.691 137.032 594.691 133.187V127.157H604.322V160.721H560.308V138.955H567.452V101.59H560.308V79.5625H604.322V112.865H604.316Z" fill="white"/>
<path d="M653.315 79.6932V110.898H642.517V104.999C642.517 103.077 641.022 102.031 638.03 101.851L631.555 101.72C628.345 101.546 626.739 102.946 626.739 105.914V110.631C626.739 113.954 628.12 115.615 630.892 115.615L639.696 115.485C648.773 115.398 653.315 118.764 653.315 125.578V148.259C653.315 151.755 651.984 154.746 649.327 157.24C646.67 159.73 643.18 160.977 638.863 160.977C633.768 160.977 629.731 159.185 626.739 155.601V160.846H615.613V128.334H626.739V133.971C626.739 137.468 628.235 139.13 631.226 138.955L638.37 138.825C640.364 138.825 641.717 138.389 642.44 137.512C643.158 136.64 643.52 135.24 643.52 133.318V128.072C643.41 127.811 643.355 127.506 643.355 127.157C642.468 124.799 641.032 123.617 639.038 123.617L629.906 123.486C620.379 123.312 615.624 119.771 615.624 112.865V92.6731C615.624 88.9148 616.895 85.7447 619.442 83.1683C621.99 80.592 625.589 79.3011 630.24 79.3011C633.231 79.3011 635.609 79.873 637.384 81.0059C637.937 81.4417 638.655 82.0136 639.542 82.7108C640.43 83.4135 641.421 84.3285 642.534 85.4615V79.6932H653.332H653.315Z" fill="white"/>
<path d="M346.213 136.791L333.911 119.254L346.213 101.716L358.515 119.254L346.213 136.791Z" fill="#FF0000"/>
</svg>
