<svg width="78" height="76" viewBox="0 0 78 76" fill="none" xmlns="http://www.w3.org/2000/svg">
<g id="MAPA DO BRASIL 1">
<path id="Vector" d="M28.9889 10.4575C29.0459 10.6056 29.1831 10.7814 29.1446 10.897C28.9889 11.3566 29.2278 11.6126 29.4961 11.9318C29.6071 12.0629 29.5131 12.4577 29.399 12.6721C28.8455 13.6976 28.8979 14.6306 29.6009 15.5143C29.917 15.9122 30.287 16.125 30.8158 15.9677C31.175 15.8613 31.542 15.7611 31.912 15.7179C32.3113 15.6716 32.7306 15.6331 33.1207 15.7024C33.6341 15.7934 34.0395 15.6793 34.3849 15.3123C34.8551 14.8142 35.8356 14.7417 36.329 15.192C37.1014 15.8952 38.0002 15.7919 38.9067 15.6007C39.0316 15.5744 39.1179 15.3786 39.2305 15.2722C39.3816 15.1288 39.5573 15.0069 39.6945 14.8512C39.8287 14.7 39.9196 14.5119 40.0445 14.353C40.3205 13.9999 40.598 13.6467 40.9048 13.3213C40.931 13.2936 41.2856 13.4555 41.321 13.5773C41.5045 14.2112 41.6988 14.8527 41.7651 15.5051C41.8252 16.0911 42.0349 16.4412 42.6176 16.5599C42.7996 16.5969 42.9691 16.6941 43.0586 16.7295C42.8797 17.1197 42.7518 17.4698 42.5637 17.7844C42.4527 17.971 42.2492 18.1036 42.0811 18.2563C41.4891 18.7945 40.8863 19.3219 40.3097 19.874C40.1786 19.999 40.1324 20.2133 40.0476 20.3876C40.0784 20.4369 40.1093 20.4863 40.1401 20.5356C40.4746 20.3814 40.8601 20.2873 41.133 20.0606C42.223 19.1538 43.3623 19.4037 44.5232 19.8401C44.8886 19.9774 44.9672 20.1994 44.6327 20.4601C44.073 20.8934 43.5026 21.3129 42.9029 21.7617C42.9568 21.8434 43.0601 22.0007 43.1834 22.1904C43.407 22.0269 43.6198 21.8989 43.8001 21.7354C44.6512 20.9597 45.6671 20.7454 46.697 21.1463C47.767 21.5627 48.7675 22.1642 49.7851 22.7116C49.8745 22.7594 49.8945 23.0232 49.8699 23.1743C49.8051 23.5552 49.6972 23.9269 49.5831 24.3988C50.0934 24.2415 50.5081 24.0996 50.929 23.9886C51.5488 23.8251 52.0961 23.9037 52.6311 24.3402C53.257 24.8491 53.9986 25.0696 54.8388 24.9046C55.5495 24.7658 56.2449 24.789 56.6904 25.5138C56.7089 25.5446 56.729 25.5863 56.7582 25.5955C57.9114 25.9826 58.2414 27.1361 58.9244 27.9535C59.3853 28.5041 59.8617 28.8865 60.594 28.996C61.6239 29.1518 62.0278 29.6175 62.1835 30.6585C62.2745 31.2599 62.3485 31.8629 62.4564 32.4597C62.6044 33.2817 62.3547 33.9757 61.8228 34.591C61.3217 35.1709 60.8654 35.8001 60.3042 36.3136C59.9542 36.6344 59.4686 36.8519 59.0045 36.9876C58.4881 37.1387 58.1535 37.387 57.9901 37.9005C57.6648 38.923 56.9864 39.6262 55.9751 39.9779C55.4509 40.1598 55.3029 40.5515 55.2227 41.042C54.9714 42.5749 54.7062 44.1047 54.4303 45.633C54.3146 46.2668 53.994 46.7819 53.5176 47.2353C53.3171 47.4266 53.1923 47.7951 53.1953 48.0804C53.2015 48.6032 53.0473 49.0181 52.7066 49.3944C52.1948 49.9588 51.8355 50.6667 51.0878 51.0029C50.9275 51.0754 50.798 51.2743 50.7116 51.4424C50.1751 52.4864 49.2794 53.0987 48.194 53.3824C47.7115 53.5089 47.1395 53.4318 46.64 53.313C46.1929 53.2066 45.8275 53.1881 45.5114 53.5305C45.0798 53.9962 44.5355 54.1381 43.9266 54.2091C43.5735 54.2492 43.2297 54.428 42.8982 54.5807C42.559 54.7349 42.2337 54.9231 41.9131 55.1143C41.6571 55.267 41.3396 55.395 41.1869 55.6248C40.9757 55.9425 40.783 56.052 40.3205 55.7728C40.1123 57.0143 39.9227 58.1678 39.7238 59.3198C39.6175 59.9382 39.323 60.4441 38.8774 60.899C38.4581 61.3262 38.0804 61.8058 37.752 62.3055C37.3511 62.9177 37.234 62.984 36.5757 62.6355C35.9466 63.4529 35.0093 64.0389 34.7379 65.1477C34.6809 65.379 34.4928 65.7368 34.112 65.4145C32.8678 65.7646 32.857 64.3119 32.0507 63.9911C31.7609 63.8754 31.5404 63.5469 31.3277 63.2832C31.0702 62.9624 30.8343 62.7172 30.3965 63.0118C30.3517 63.0426 30.1128 62.893 30.0573 62.7805C29.88 62.4258 29.8029 62.0125 29.5871 61.6902C29.1615 61.0563 29.1338 61.0008 29.6333 60.4533C30.6154 59.3769 31.6267 58.3375 33.0667 57.8656C33.1654 57.8332 33.2594 57.7653 33.3381 57.6959C33.8561 57.2271 33.8468 55.6201 33.2918 55.1976C32.9912 54.9693 32.9465 54.7673 33.0652 54.428C33.187 54.078 33.2579 53.7017 33.2964 53.33C33.3488 52.8149 33.1515 52.6437 32.6458 52.6977C31.8626 52.781 31.8534 52.7455 31.8503 51.9575C31.8488 51.5072 31.8225 51.0229 31.6576 50.6142C31.4664 50.1377 30.9962 49.9573 30.472 49.9249C28.9503 49.8339 28.8763 49.7923 29.0166 48.2748C29.0968 47.4188 29.0351 46.546 29.4545 45.7055C29.7351 45.1441 29.7412 44.4255 29.7751 43.7731C29.7859 43.5711 29.5331 43.2827 29.325 43.1578C28.8948 42.8972 28.6959 42.6165 28.8794 42.1045C29.1415 41.372 29.103 41.4044 28.3074 41.3057C27.7601 41.2378 27.2005 41.0404 26.7118 40.7798C26.2215 40.5176 26.2755 40.0765 26.408 39.5352C26.5453 38.9708 26.6424 38.2568 26.408 37.7833C26.1799 37.3253 25.5354 37.0277 24.8833 37.094C24.7337 37.1094 24.4886 37.0986 24.4331 37.0092C23.9583 36.2473 23.0194 36.1841 22.4042 35.6335C22.2516 35.4963 21.9879 35.4423 21.7706 35.4238C20.9889 35.3621 19.8881 34.1654 19.9452 33.3758C19.9822 32.8823 20.104 32.395 20.1394 31.903C20.1548 31.6917 20.0515 31.4727 20.0084 31.2831C19.0309 31.2831 18.2739 31.5298 17.5308 32.1251C17.0144 32.5384 16.3283 32.927 15.5389 32.8792C14.9516 32.8437 14.3565 32.9162 13.766 32.9101C13.1724 32.9039 12.9489 32.6756 12.9566 32.0912C12.9612 31.6655 13.0044 31.2399 13.0352 30.7495C12.5002 30.953 11.9868 31.135 11.4827 31.3417C11.1512 31.4774 10.9046 31.4928 10.7689 31.081C10.7226 30.9407 10.6024 30.7633 10.476 30.7186C9.49696 30.3716 9.37979 29.4741 9.12079 28.6644C9.08379 28.5488 9.03908 28.4285 8.96661 28.3344C8.4856 27.7145 8.53339 27.3012 9.06374 26.7552C9.30888 26.5039 9.54784 26.1738 9.6203 25.8423C9.8531 24.7828 10.476 23.9916 11.4087 23.5922C12.0547 23.3162 12.8548 23.3223 13.5825 23.3378C14.1607 23.3501 14.2532 23.3702 14.3688 22.778C14.5476 21.8727 14.7265 20.9674 14.93 20.0684C14.9762 19.8663 15.1088 19.6797 15.226 19.5008C15.5467 19.0027 15.5127 18.5323 15.1751 18.0543C14.9593 17.7489 14.7434 17.4359 14.5892 17.0966C14.3827 16.6463 14.5877 16.3378 15.0841 16.2715C15.1905 16.2576 15.3092 16.2823 15.4033 16.2407C15.5405 16.1805 15.6592 16.0787 15.7856 15.9939C15.6916 15.8551 15.6129 15.7009 15.4973 15.5822C15.3539 15.4357 15.0934 15.3477 15.0379 15.1827C14.9361 14.8789 15.115 14.6784 15.4557 14.6507C16.2882 14.5859 17.1207 14.5042 17.9533 14.4502C18.4651 14.4163 18.775 14.697 18.9646 15.2336C19.0618 15.5112 19.1913 15.8073 19.3932 16.0093C19.5274 16.1435 19.811 16.1358 20.0315 16.1682C20.1333 16.1836 20.2628 16.0957 20.3445 16.1327C21.0012 16.4334 21.4638 16.0093 21.9664 15.724C22.5738 15.3801 23.1812 15.0378 23.7871 14.6923C24.282 14.4101 24.3005 14.0847 23.8149 13.7732C23.2552 13.4154 23.0271 12.9034 23.0903 12.2665C23.1365 11.7899 23.3986 11.6465 23.8287 11.8516C24.2126 12.0352 24.5765 12.2603 24.9881 12.4886C25.0914 12.3621 25.1808 12.194 25.318 12.0968C25.5231 11.9534 25.7528 11.81 25.9918 11.7591C26.3741 11.6789 26.8012 11.7499 27.1573 11.6157C27.5181 11.48 27.8264 11.1854 28.1363 10.9356C28.2997 10.803 28.42 10.6164 28.5603 10.4529C28.7037 10.4529 28.847 10.4529 28.9904 10.4529L28.9889 10.4575Z" fill="white"/>
</g>
</svg>
